<svg xmlns="http://www.w3.org/2000/svg" width="118" height="32" viewBox="0 0 118 31.91" shape-rendering="geometricPrecision" image-rendering="optimizeQuality" fill-rule="evenodd" xmlns:v="https://vecta.io/nano"><g fill-rule="nonzero">
<path d="M56.23 21.45l-.97-2.96h.71l.84 2.62h-.35l.88-2.62h.63l.85 2.62h-.35l.87-2.62h.65l-.97 2.96h-.73l-.75-2.3h.19l-.77 2.3h-.73zm5.06.04c-.26 0-.49-.06-.69-.16a1.19 1.19 0 0 1-.45-.41c-.11-.18-.16-.38-.16-.61a1.1 1.1 0 0 1 .16-.6c.1-.18.25-.32.43-.42s.39-.15.62-.15c.22 0 .43.05.6.14.18.1.32.23.43.41a1.28 1.28 0 0 1 .16.63c0 .03-.01.06-.01.09s0 .06-.01.09h-1.85v-.38h1.51l-.26.11c0-.12-.02-.22-.07-.31a.43.43 0 0 0-.2-.2c-.08-.05-.18-.08-.29-.08-.12 0-.22.03-.3.08a.39.39 0 0 0-.2.2.66.66 0 0 0-.08.32v.1a.63.63 0 0 0 .09.33c.05.09.13.16.23.21s.22.08.35.08c.12 0 .23-.02.32-.06a.67.67 0 0 0 .25-.16l.35.38c-.1.12-.23.21-.39.27s-.34.1-.54.1zm4.21.01c-.24 0-.45-.04-.65-.11-.19-.07-.36-.18-.51-.32a1.54 1.54 0 0 1-.34-.49 1.51 1.51 0 0 1-.12-.61 1.51 1.51 0 0 1 .12-.61 1.54 1.54 0 0 1 .34-.49 1.62 1.62 0 0 1 .52-.32c.2-.07.41-.11.65-.11.26 0 .5.04.71.13a1.47 1.47 0 0 1 .53.38l-.44.41a1.03 1.03 0 0 0-.35-.25.99.99 0 0 0-.42-.09c-.14 0-.27.03-.39.07a.92.92 0 0 0-.31.2.77.77 0 0 0-.19.3.92.92 0 0 0-.07.38.92.92 0 0 0 .07.38.77.77 0 0 0 .19.3.79.79 0 0 0 .31.2.97.97 0 0 0 .39.07c.13 0 .26-.02.39-.07.13-.04.25-.11.38-.22l.38.5a1.62 1.62 0 0 1-.56.27c-.21.07-.42.1-.63.1zm.57-.46v-1.12h.62v1.21l-.62-.09zm1.21.41v-2.27h.66v2.27h-.66zm.33-2.59a.4.4 0 0 1-.29-.11c-.08-.07-.12-.15-.12-.26 0-.1.04-.19.12-.26a.4.4 0 0 1 .29-.11.49.49 0 0 1 .3.1c.07.07.11.15.11.26a.37.37 0 0 1-.11.27c-.07.07-.17.11-.3.11zm1.56 2.59l-.95-2.27h.68l.79 1.95h-.34l.83-1.95h.63l-.96 2.27h-.68zm2.98.04c-.26 0-.49-.06-.68-.16a1.15 1.15 0 0 1-.46-.41c-.11-.18-.16-.38-.16-.61a1.1 1.1 0 0 1 .16-.6c.11-.18.25-.32.43-.42a1.29 1.29 0 0 1 .62-.15c.23 0 .43.05.61.14.18.1.32.23.42.41.11.18.16.39.16.63 0 .03 0 .06-.01.09v.09h-1.85v-.38h1.5l-.25.11a.62.62 0 0 0-.08-.31.39.39 0 0 0-.2-.2c-.08-.05-.18-.08-.29-.08a.61.61 0 0 0-.3.08.43.43 0 0 0-.2.2c-.05.09-.07.2-.07.32v.1a.73.73 0 0 0 .08.33c.06.09.13.16.23.21s.22.08.36.08a.83.83 0 0 0 .32-.06c.09-.03.17-.09.25-.16l.35.38c-.11.12-.24.21-.4.27-.15.06-.34.1-.54.1zm2.3 0a2.6 2.6 0 0 1-.56-.07c-.18-.05-.32-.11-.42-.18l.22-.47c.1.06.23.11.37.15.14.05.28.07.42.07.15 0 .26-.02.32-.06.07-.04.1-.09.1-.15 0-.05-.03-.09-.08-.12s-.11-.05-.19-.06c-.08-.02-.17-.03-.27-.05-.1-.01-.2-.03-.3-.05-.09-.03-.18-.06-.27-.11-.08-.05-.14-.11-.19-.19a.63.63 0 0 1-.08-.32c0-.15.04-.27.13-.38.08-.11.2-.2.36-.26.16-.07.35-.1.57-.1.15 0 .31.02.47.05.16.04.29.09.4.15l-.22.47c-.11-.06-.22-.11-.33-.13a1.22 1.22 0 0 0-.32-.04c-.15 0-.26.02-.33.06-.06.04-.1.09-.1.15s.03.1.08.13a.69.69 0 0 0 .19.07l.27.04c.1.01.2.03.3.06a.85.85 0 0 1 .26.11.46.46 0 0 1 .2.19.57.57 0 0 1 .08.31c0 .14-.04.27-.13.38-.08.1-.21.19-.37.25a1.59 1.59 0 0 1-.58.1zm2.73-.04v-2.96h1.44c.37 0 .65.07.84.21a.66.66 0 0 1 .28.56.65.65 0 0 1-.11.4c-.08.12-.18.21-.31.27-.14.06-.29.09-.46.09l.08-.17c.19 0 .35.03.49.09a.71.71 0 0 1 .34.27.75.75 0 0 1 .12.43c0 .26-.1.46-.3.6s-.49.21-.88.21h-1.53zm.68-.51h.8c.17 0 .31-.03.4-.09s.14-.15.14-.28c0-.12-.05-.21-.14-.28-.09-.06-.23-.09-.4-.09h-.85v-.49h.73c.16 0 .29-.03.38-.09s.13-.15.13-.27c0-.11-.04-.2-.13-.26-.09-.05-.22-.08-.38-.08h-.68v1.93zm3.63.55c-.26 0-.48-.06-.68-.16a1.12 1.12 0 0 1-.45-.41c-.11-.18-.16-.38-.16-.61 0-.22.05-.43.15-.6a1.11 1.11 0 0 1 .44-.42c.18-.1.39-.15.62-.15.22 0 .42.05.6.14.18.1.32.23.43.41.1.18.15.39.15.63v.09c0 .03-.01.06-.01.09h-1.85v-.38h1.5l-.25.11c0-.12-.02-.22-.07-.31a.48.48 0 0 0-.2-.2c-.09-.05-.18-.08-.3-.08-.11 0-.21.03-.29.08a.45.45 0 0 0-.21.2c-.04.09-.07.2-.07.32v.1a.63.63 0 0 0 .09.33c.05.09.13.16.23.21s.22.08.35.08c.12 0 .23-.02.32-.06a.67.67 0 0 0 .25-.16l.35.38c-.1.12-.23.21-.39.27a1.54 1.54 0 0 1-.55.1zm2.31 0c-.2 0-.38-.03-.56-.07-.18-.05-.32-.11-.43-.18l.22-.47c.11.06.23.11.37.15a1.32 1.32 0 0 0 .42.07c.16 0 .26-.02.33-.06.06-.04.09-.09.09-.15a.13.13 0 0 0-.07-.12c-.05-.03-.12-.05-.2-.06-.08-.02-.17-.03-.27-.05-.09-.01-.19-.03-.29-.05a1.09 1.09 0 0 1-.27-.11c-.08-.05-.15-.11-.2-.19a.63.63 0 0 1-.07-.32c0-.15.04-.27.12-.38a.88.88 0 0 1 .36-.26c.16-.07.35-.1.57-.1a2.5 2.5 0 0 1 .47.05 1.61 1.61 0 0 1 .41.15l-.22.47c-.11-.06-.22-.11-.34-.13a1.17 1.17 0 0 0-.32-.04c-.15 0-.25.02-.32.06s-.1.09-.1.15.02.1.07.13a.77.77 0 0 0 .2.07l.27.04c.09.01.19.03.29.06a.81.81 0 0 1 .27.11.52.52 0 0 1 .2.19.57.57 0 0 1 .07.31c0 .14-.04.27-.12.38a.93.93 0 0 1-.37.25 1.63 1.63 0 0 1-.58.1zm2.41 0c-.27 0-.48-.07-.63-.21s-.22-.34-.22-.61v-2h.66v1.99c0 .1.02.17.07.22.06.05.12.08.21.08.11 0 .19-.03.27-.08l.18.46c-.07.05-.15.09-.25.11-.09.02-.19.04-.29.04zm-1.2-1.76v-.5h1.57v.5h-1.57zm3.96 1.72v-2.4h-.94v-.56h2.58v.56h-.95v2.4h-.69zm1.91 0v-2.27h.63v.64l-.09-.19c.07-.16.17-.28.32-.36.15-.09.33-.13.55-.13v.61h-.08c-.02-.01-.04-.01-.07-.01-.18 0-.33.05-.44.16-.11.1-.16.26-.16.48v1.07h-.66zm3.05 0v-.44l-.04-.1v-.79a.42.42 0 0 0-.13-.33c-.09-.08-.22-.12-.4-.12-.12 0-.24.02-.35.05-.12.04-.22.09-.3.16l-.24-.46a1.44 1.44 0 0 1 .45-.21c.17-.04.35-.07.53-.07.35 0 .62.08.81.25.19.16.29.42.29.76v1.3h-.62zm-.69.04c-.18 0-.33-.04-.46-.1s-.22-.14-.29-.24a.62.62 0 0 1-.1-.35.61.61 0 0 1 .1-.36c.06-.1.17-.18.31-.24s.33-.08.56-.08h.61v.38h-.53c-.16 0-.27.03-.32.08-.06.05-.09.11-.09.19s.03.15.1.2c.06.05.16.07.27.07a.52.52 0 0 0 .3-.08c.08-.05.15-.13.19-.23l.1.31c-.05.14-.14.25-.26.33-.13.08-.29.12-.49.12zm2.48-.04l-.96-2.27h.68l.8 1.95h-.34l.82-1.95h.64l-.96 2.27h-.68zm2.98.04c-.26 0-.49-.06-.69-.16a1.12 1.12 0 0 1-.45-.41c-.11-.18-.16-.38-.16-.61a1.1 1.1 0 0 1 .16-.6c.1-.18.25-.32.43-.42s.39-.15.62-.15c.22 0 .42.05.6.14.18.1.32.23.43.41.1.18.15.39.15.63v.09c0 .03-.01.06-.01.09h-1.85v-.38h1.51l-.26.11c0-.12-.02-.22-.07-.31a.43.43 0 0 0-.2-.2c-.08-.05-.18-.08-.3-.08-.11 0-.21.03-.29.08a.39.39 0 0 0-.2.2.66.66 0 0 0-.08.32v.1a.63.63 0 0 0 .09.33c.05.09.13.16.23.21s.22.08.35.08c.12 0 .23-.02.32-.06a.67.67 0 0 0 .25-.16l.35.38c-.1.12-.23.21-.39.27s-.34.1-.54.1zm1.53-.04v-3.14h.66v3.14h-.66zm2.52 0v-2.96h1.35c.32 0 .6.06.84.19.25.12.44.29.58.51s.21.48.21.78-.07.56-.21.78-.33.39-.58.52c-.24.12-.52.18-.84.18h-1.35zm.69-.56h.62a1.13 1.13 0 0 0 .51-.11.81.81 0 0 0 .34-.32c.08-.14.12-.3.12-.49s-.04-.35-.12-.49c-.08-.13-.19-.24-.34-.31-.14-.08-.31-.12-.51-.12h-.62v1.84zm3.89.6c-.26 0-.49-.06-.69-.16a1.19 1.19 0 0 1-.45-.41c-.11-.18-.16-.38-.16-.61a1.1 1.1 0 0 1 .16-.6c.1-.18.25-.32.43-.42s.39-.15.62-.15c.22 0 .42.05.6.14.18.1.32.23.43.41a1.28 1.28 0 0 1 .16.63c0 .03-.01.06-.01.09s0 .06-.01.09h-1.85v-.38h1.51l-.26.11c0-.12-.02-.22-.07-.31a.43.43 0 0 0-.2-.2c-.08-.05-.18-.08-.29-.08-.12 0-.22.03-.3.08a.39.39 0 0 0-.2.2.66.66 0 0 0-.08.32v.1a.63.63 0 0 0 .09.33c.05.09.13.16.23.21s.22.08.35.08c.12 0 .23-.02.32-.06a.67.67 0 0 0 .25-.16l.35.38c-.1.12-.23.21-.39.27s-.34.1-.54.1zm2.87-.04v-.44l-.05-.1v-.79c0-.15-.04-.26-.12-.33-.09-.08-.22-.12-.4-.12-.12 0-.24.02-.36.05a1.08 1.08 0 0 0-.3.16l-.23-.46a1.34 1.34 0 0 1 .45-.21c.17-.04.35-.07.53-.07.35 0 .61.08.81.25.19.16.28.42.28.76v1.3h-.61zm-.7.04a1.03 1.03 0 0 1-.45-.1c-.13-.06-.23-.14-.3-.24a.71.71 0 0 1-.1-.35.69.69 0 0 1 .1-.36c.07-.1.17-.18.32-.24.14-.06.33-.08.56-.08h.6v.38h-.53c-.15 0-.26.03-.32.08s-.08.11-.08.19.03.15.1.2c.06.05.15.07.27.07a.47.47 0 0 0 .29-.08c.09-.05.15-.13.19-.23l.11.31c-.05.14-.14.25-.27.33-.12.08-.29.12-.49.12zm1.91-.04v-3.14h.66v3.14h-.66zm2.04.04c-.2 0-.38-.03-.56-.07-.18-.05-.32-.11-.43-.18l.22-.47c.11.06.23.11.37.15a1.32 1.32 0 0 0 .42.07c.16 0 .26-.02.33-.06.06-.04.09-.09.09-.15a.13.13 0 0 0-.07-.12c-.05-.03-.12-.05-.2-.06-.08-.02-.17-.03-.27-.05-.09-.01-.19-.03-.29-.05a1.09 1.09 0 0 1-.27-.11c-.08-.05-.15-.11-.2-.19a.63.63 0 0 1-.07-.32c0-.15.04-.27.12-.38a.88.88 0 0 1 .36-.26c.16-.07.35-.1.57-.1a2.5 2.5 0 0 1 .47.05 1.61 1.61 0 0 1 .41.15l-.22.47c-.11-.06-.22-.11-.34-.13a1.17 1.17 0 0 0-.32-.04c-.15 0-.25.02-.32.06s-.1.09-.1.15.02.1.07.13a.77.77 0 0 0 .2.07l.27.04c.09.01.19.03.29.06a.81.81 0 0 1 .27.11.52.52 0 0 1 .2.19.57.57 0 0 1 .07.31c0 .14-.04.27-.12.38a.93.93 0 0 1-.37.25 1.63 1.63 0 0 1-.58.1z" fill="#fff"/><path d="M44.06 7.35a4.86 4.86 0 0 1 1.85.38c.61.25 1.11.64 1.51 1.15.4.52.6 1.15.6 1.88v3.16c0 .75-.2 1.38-.6 1.89-.4.52-.9.9-1.51 1.15s-1.23.37-1.85.37h-3.3c-.16 0-.27-.03-.33-.11-.07-.07-.1-.18-.1-.33v-9.1c0-.15.03-.26.1-.33.06-.07.17-.11.33-.11h3.3zm1.65 3.63c0-.48-.16-.85-.46-1.12-.31-.27-.7-.4-1.19-.4h-1.42v5.76h1.42c.5 0 .9-.13 1.2-.4s.45-.64.45-1.11v-2.73zm11.43-3.63c.15 0 .26.04.33.1.07.07.1.18.1.34v6.49c0 .75-.19 1.37-.58 1.86s-.88.85-1.47 1.08c-.6.22-1.21.34-1.85.34a5.22 5.22 0 0 1-1.84-.34c-.59-.23-1.08-.59-1.47-1.08-.38-.49-.58-1.11-.58-1.86V7.79c0-.16.04-.27.11-.34.07-.06.17-.1.32-.1h1.46c.15 0 .25.04.32.1.07.07.1.18.1.34v6.16c0 .47.14.84.42 1.11.28.26.67.39 1.16.39s.88-.13 1.16-.39c.29-.27.43-.64.43-1.11V7.79c0-.16.03-.27.1-.34.07-.06.18-.1.33-.1h1.45zm10.43 9.5a.42.42 0 0 1 .06.21c0 .08-.03.14-.08.19-.05.06-.11.08-.2.08h-1.74c-.17 0-.3-.03-.41-.11-.11-.07-.22-.18-.33-.34l-1.59-2.45c-.07-.09-.11-.19-.13-.29-.02-.11-.03-.27-.03-.48v-1.21c0-.15.03-.26.1-.34.06-.07.17-.1.33-.1h.29c.38 0 .7-.12.98-.36s.42-.53.42-.87c0-.38-.13-.7-.38-.93-.26-.24-.58-.36-.97-.36h-1.96v7.4c0 .16-.04.28-.1.34-.07.07-.18.1-.33.1h-1.46c-.13 0-.24-.03-.3-.1-.07-.06-.11-.18-.11-.34V7.81c0-.15.03-.27.09-.34s.17-.1.32-.1h3.71c.77 0 1.37.07 1.79.23a2.81 2.81 0 0 1 1.14.74c.28.27.49.62.64 1.03.14.41.22.86.22 1.35s-.1.95-.31 1.37a3.69 3.69 0 0 1-.78 1.06c-.32.28-.63.48-.96.59l2.08 3.11zm10.2.06c.03.06.04.12.04.18 0 .16-.09.24-.29.24h-1.55c-.16 0-.28-.03-.36-.09-.07-.06-.14-.18-.2-.36l-.41-1.2h-3.6l-.42 1.2c-.06.18-.12.3-.2.36-.07.06-.19.09-.36.09h-1.54c-.2 0-.3-.08-.3-.24 0-.06.02-.12.05-.18l3.27-9.09c.05-.16.13-.28.22-.35.1-.08.22-.12.38-.12h1.41c.16 0 .28.04.37.12.09.07.17.19.24.35l3.25 9.09zm-4.56-6.71l-1.11 3.35h2.21l-1.1-3.35zm13.33 4.17a2.61 2.61 0 0 1-.56 1.67c-.37.49-.85.86-1.45 1.12-.59.27-1.2.4-1.81.4-.63 0-1.25-.13-1.85-.38s-1.11-.64-1.5-1.15c-.4-.52-.6-1.15-.6-1.9v-3.58c0-.75.2-1.38.6-1.89.39-.52.9-.9 1.5-1.16.6-.25 1.22-.37 1.85-.37.62 0 1.22.1 1.78.32s1.02.54 1.4.98a2.7 2.7 0 0 1 .64 1.58c0 .18-.03.3-.09.35-.07.06-.19.09-.36.09h-1.42c-.09 0-.17-.03-.22-.08a.56.56 0 0 1-.12-.2l-.1-.19c-.15-.26-.35-.44-.58-.56-.23-.11-.54-.17-.93-.17-.49 0-.89.13-1.19.4s-.45.64-.45 1.11v3.16c0 .47.15.85.45 1.11.3.27.7.41 1.19.41.42 0 .77-.09 1.04-.26.28-.17.44-.43.5-.78.03-.19.07-.33.11-.41.05-.09.14-.13.29-.13h1.44c.16 0 .27.04.34.12s.1.21.1.39zm10.18 2.54c.03.06.04.12.04.18 0 .16-.1.24-.29.24h-1.55c-.17 0-.29-.03-.36-.09s-.14-.18-.2-.36l-.41-1.2h-3.61l-.41 1.2c-.06.18-.12.3-.2.36-.07.06-.19.09-.36.09h-1.54c-.2 0-.3-.08-.3-.24 0-.06.02-.12.04-.18l3.27-9.09a.79.79 0 0 1 .23-.35c.09-.08.22-.12.38-.12h1.41c.16 0 .28.04.37.12.09.07.16.19.23.35l3.26 9.09zm-4.57-6.71l-1.1 3.35h2.21l-1.11-3.35zm12.78 1.96c.12.04.28.14.49.3.2.15.4.4.59.73.18.33.28.74.28 1.23 0 .94-.32 1.66-.96 2.16s-1.49.75-2.55.75h-4.33c-.15 0-.26-.03-.33-.11-.06-.07-.09-.18-.09-.33V7.78c0-.15.03-.27.09-.34.07-.07.18-.1.33-.1h4.13c.76 0 1.4.12 1.92.38.51.25.89.58 1.14 1a2.67 2.67 0 0 1 .37 1.36c0 .65-.13 1.13-.38 1.45s-.48.53-.7.63zm-2.12 3.02c.76 0 1.14-.33 1.14-.99 0-.33-.11-.57-.33-.71-.21-.14-.51-.21-.9-.21h-.33c-.16 0-.27-.04-.34-.11-.06-.07-.09-.18-.09-.33v-1.16c0-.15.03-.26.09-.33.07-.07.18-.11.34-.11h.19c.81 0 1.22-.3 1.22-.91 0-.32-.1-.54-.3-.66s-.51-.18-.92-.18h-2.24v5.7h2.47zm9.9-3.64c.53.16.96.33 1.31.5.34.17.64.44.91.82.26.37.4.88.4 1.51 0 1.04-.36 1.84-1.08 2.38s-1.66.81-2.84.81c-.64 0-1.26-.13-1.87-.37-.61-.25-1.11-.62-1.5-1.11s-.59-1.07-.59-1.74c0-.17.03-.28.09-.34.06-.05.17-.08.34-.08h1.42c.19 0 .32.02.4.07.08.06.12.17.13.35.02.22.12.42.28.63.14.17.34.29.6.37a2.57 2.57 0 0 0 .85.13c.45 0 .8-.08 1.06-.22.25-.15.38-.42.38-.82 0-.28-.13-.49-.38-.62-.26-.13-.66-.26-1.21-.39l-.97-.26c-.6-.19-1.1-.4-1.5-.62-.39-.22-.72-.53-.98-.91-.25-.39-.38-.88-.38-1.49 0-.62.17-1.16.5-1.6.32-.45.76-.79 1.31-1.02.54-.23 1.13-.36 1.77-.39.66 0 1.29.1 1.88.31.6.22 1.09.54 1.47.97s.57.96.57 1.6c0 .18-.03.29-.09.35-.05.05-.16.07-.34.07h-1.44c-.11 0-.19-.03-.24-.08-.05-.06-.09-.12-.11-.19s-.04-.12-.05-.14a1.35 1.35 0 0 0-.31-.45 1.39 1.39 0 0 0-.55-.31 2.42 2.42 0 0 0-.7-.1c-.32 0-.61.07-.89.21-.27.14-.41.36-.41.67s.2.56.6.75c.4.2.92.38 1.57.57.27.06.47.12.59.18z" fill="#fff"/></g><path d="M5.56 3.8l-.07.07-.22.07v.15h-.14l-.07.07-.08.07-.07.07-.07.07-.07.22-.07.07-.08.22v.86l.08.22.07.07.07.22.07.07.07.07.08.07.07.08h.14v.14l.22.07.07.07.29.08h1.8l.29-.08.07-.07.22-.07v-.14h.14l.07-.08.08-.07.07-.07.07-.07.07-.15.07-.14.08-.14V4.81l-.08-.22-.07-.07-.07-.15-.07-.07-.07-.14-.15-.07h-.14v-.15l-.15-.07-.07-.07-.36-.08h-1.8zM3.47 10l-.29.07-.07.07-.14.07v.15h-.15l-.07.07-.07.07-.08.07-.07.15-.07.14-.07.22-.07.36v.22l.07.28.07.22.07.22.07.07.08.14.14.07.07.08.08.07.07.07.07.07.22.08.14.07h3.96l.15-.07.14-.08.15-.07.07-.07.07-.07.07-.08.08-.07.07-.07.07-.14.07-.08.07-.21.08-.15v-.79l-.08-.22-.07-.14-.07-.07-.07-.15-.07-.14-.15-.07-.07-.07-.07-.08-.15-.07-.07-.07-.29-.07-.14-.08H3.61zm.72 12.18l-.14.07-.08.08-.14.07-.14.07-.08.07-.07.15-.07.07v.14h-.14l-.08.22-.07.14v.87l.07.14.08.22.07.07.07.14h.14v.15l.08.07.07.07.14.07.07.08.22.07.14.07h4.26l.21-.07.15-.07.07-.08.15-.07.07-.07.07-.07.07-.07v-.15h.15l.07-.14.07-.15.07-.28v-.73l-.07-.28-.07-.08-.07-.21h-.15v-.15l-.07-.07-.07-.07-.07-.07-.15-.07-.14-.08-.15-.07-.14-.07H4.41z" fill="#fff"/><path d="M33.75 17.06l-.07.29-.07.36-.08.22-.07.29-.07.14-.07.29-.08.14-.07.15-.07.21-.07.08-.07.21-.08.07-.07.15-.07.14-.07.15-.07.14-.08.07-.07.15-.07.07-.07.14-.07.08-.08.07v.14h-.14l-.07.15-.07.07-.08.07-.07.07-.07.07-.07.15-.08.07-.07.07-.07.07-.07.08-.07.07-.15.07-.07.07-.07.07-.07.08-.15.07v.14h-.14l-.07.08-.15.07-.07.07-.07.07-.15.07-.14.08-.07.07-.15.07-.14.07-.15.07-.07.08-.21.07-.08.07-.21.07-.15.07-.21.08-.15.07-.29.07-.28.07-.15.08-.43.07-.15.07.08-.36.07-.87.07-.43.07-.29.08-.36.07-.14.07-.29.07-.14.07-.29.08-.22.07-.14.07-.22.07-.07.07-.15.08-.14.07-.14.07-.15.07-.14.07-.15.08-.07.07-.14.07-.08.07-.14.08-.07.07-.07.07-.15.07-.07v-.14h.15l.07-.15.07-.07.07-.07.07-.07.08-.08.07-.07.07-.07.07-.07.07-.08.08-.07.07-.07.07-.07.14-.07.08-.08.14-.07.07-.07.08-.07.07-.07.14-.08.15-.07.07-.07.14-.07.07-.07.22-.08.07-.07.22-.07.14-.07.22-.07.29-.08.21-.07.36-.07.36-.07.66-.08-.08.73-.07.57zm-16.37-1.22h.65l.29.07.36.07.22.07.29.08.21.07.15.07.21.07.08.07.14.08.14.07.15.07.07.07.14.07.15.08.07.07h.14v.14l.15.07.07.08.15.07.07.07.07.07.07.07.07.08h.15v.14l.07.07.07.08.07.07.08.07.07.07.07.07.07.15.07.07.08.07.07.07.07.15.07.07.07.14.08.08.07.14.07.15h.15v.21l.07.07.07.15.07.21.07.08.08.14.07.14.07.29.07.08.07.28.08.22.07.14.07.29.07.29.07.36.08.36.07.65.07.66-.14-.08-.36-.07-.22-.08-.29-.07-.29-.07-.14-.07-.22-.08-.14-.07-.15-.07-.14-.07-.14-.07-.15-.08-.14-.07h-.22v-.14l-.14-.07-.07-.08-.15-.07-.14-.07-.15-.07-.07-.07-.07-.08-.07-.07-.15-.07-.07-.07-.07-.08-.07-.07-.08-.07-.07-.07h-.14v-.15h-.15v-.14h-.14v-.14l-.07-.08h-.15v-.14l-.07-.07-.07-.07-.07-.08-.08-.14-.07-.07-.07-.07-.07-.15-.07-.07-.08-.15-.07-.07-.07-.14-.07-.07-.07-.15-.08-.14-.07-.15-.07-.14-.07-.07-.08-.22-.07-.14-.07-.15-.07-.29-.07-.14-.08-.22-.07-.14-.07-.43-.07-.22-.07-.5-.08-.8v-.21zm9.45.36l-.07.07v.22h-.15l-.07.14-.14.07v.15h-.15l-.14.07-.22.07h-.5-.36v-.14l-.22-.08-.07-.07-.07-.07-.08-.07-.07-.15-.07-.07-.07-.21-.07-.15v-.5l.07-.22.07-.14.07-.15.07-.07.08-.07.07-.07.07-.08.14-.07.08-.07.21-.07h.72l.22.07.07.07.15.07.07.08.07.07.07.07.07.07.08.15.07.14.07.29v.29l-.07.36zm-8.94-3.25l.07-.21.07-.22.07-.07v-.29h.15l.07-.22.07-.07.08-.21.07-.08.07-.14.07-.15.07-.07.08-.14.07-.07.07-.08.07-.14.07-.07.08-.15.07-.07.07-.07.07-.07.07-.07.08-.08.07-.07V10h.14l.08-.15.07-.07.14-.07.07-.07.08-.08.07-.07v-.14h.14l.07-.07.08-.08.14-.07.07-.07.15-.07.07-.07.14-.08.08-.07.14-.07.07-.07.15-.07.14-.08.14-.07.15-.07.07-.07.22-.08.21-.07.07-.07.29-.07.15-.07.21-.08.22-.07.36-.07.22-.07.5-.07h2.09l.58.07.22.07.36.07.14.07.29.08.14.07.29.07.07.07.22.07.22.08.07.07.21.07.08.07.14.08.07.07.15.07.14.07.07.07.15.08.07.07.14.07.08.07.07.07.07.08.14.07.08.07.07.07h.14v.15h.15v.14l.14.07.07.07.07.08.08.07.07.07.07.15.07.07.08.07.07.07.07.15h.14v.14l.08.07.07.15.07.14h.14v.14l.08.15.07.07.07.15.07.14.07.14.08.15.07.21h.14v.29l.07.07.08.29H17.89zm-2.31-8.29l-.07.07-.14.08-.15.07-.07.07-.07.07-.08.07-.07.15-.07.07-.07.29-.07.36v.22l.07.21.07.29.07.07.07.15.08.07.07.07.07.07.07.08.15.07-.51.07-5.33.07-.15.07-.07.08-.14.07v.14h-.15l-.07.15-.07.14-.07.07-.08.15v1.01l.08.07.07.21.07.08.07.14.15.07.07.07.07.08.15.07.07.07 3.75.07.07.08-.15.07-.07.07-.07.07-.07.07-.07.08-.08.07-.07.14-.07.15-.07.43v.22l.07.43.07.07.07.22.08.07.07.07.07.07.07.07.07.08.08.07.21.07h-3.53l-.14.07-.22.08-.07.07-.15.07-.07.07-.07.07-.07.08-.07.07-.08.07-.07.22-.07.07v1.01l.07.14.07.15.08.07.07.07.07.14.14.08.08.07.07.07.29.07.14.07.36.08-.14.07-.15.07-.07.15-.07.07-.07.07-.08.22-.07.07-.07.36v.29l.07.43.07.14.08.15.07.07.07.07.07.15.15.07.07.07.14.07.15.07h-.22l-.07.08-.07.07-.08.07-.07.07-.07.07-.07.08-.07.07-.08.14-.07.15v1.08l.07.07.08.22.07.07h.14v.14h.15v.15l.14.07.14.07.29.07 2.1.04-.15.04-.07.07-.07.07-.08.07-.07.07-.07.15-.07.07-.07.14-.08.37v.36l.08.43.07.07.07.14.07.15.07.07.15.07.07.08.07.07.07.07.29.07.22.07 4.76.08.07.07.07.07h.15v.14l.14.08.07.07.07.07.08.07.14.07.07.08.15.07.07.07.07.07.14.07.08.08.14.07.07.07.22.07.14.08.08.07.14.07.07.07.22.07.07.08.22.07.21.07.08.07.21.07.15.08.21.07.15.07.21.07.22.07.29.08.43.07.22.07.43.07.36.08.79.07h1.44l.87-.07.29-.08.5-.07.22-.07.36-.07.29-.08.14-.07.29-.07.14-.07.22-.07.14-.08L30 26l.14-.07.15-.07.22-.07.14-.08.14-.07.08-.07.14-.07.14-.07.15-.08.14-.07.07-.07.15-.07.07-.08.15-.07.07-.07.14-.07.07-.07.08-.08.14-.07.07-.07.15-.07v-.15h.14l.07-.07.07-.07.08-.07.07-.07.07-.08.14-.07.08-.07.07-.07.07-.07v-.15h.15l.07-.07.07-.07.07-.08.07-.07.08-.14.07-.07.07-.08.07-.07.07-.07.08-.14.07-.08.07-.07.07-.07.07-.14v-.15h.15l.07-.14.07-.08.08-.14.07-.07.07-.15.07-.14.07-.07.08-.22.07-.07.07-.14.07-.08.07-.21.08-.07.07-.22.07-.22.07-.07.07-.22.08-.14.07-.22.07-.14.07-.29.07-.29.08-.21.07-.36.07-.15.07-.5.08-.44.07-1.58v-.22l-.07-1.01-.08-.43-.07-.43-.07-.29-.07-.36-.08-.15-.07-.28-.07-.29-.07-.15-.07-.21-.08-.15-.07-.21-.07-.08-.07-.21-.07-.22-.08-.14-.07-.15-.07-.07-.07-.14-.07-.15-.08-.14-.07-.07-.07-.15-.07-.14-.07-.07-.08-.15-.07-.07-.07-.14-.07-.08-.08-.14-.07-.07-.07-.07-.07-.15-.07-.07-.08-.07-.07-.07-.07-.08-.07-.07-.07-.14-.08-.08-.07-.07-.07-.07-.07-.07-.07-.07-.08-.08-.07-.07-.07-.07-.07-.07-.08-.07-.07-.08-.07-.07h-.14v-.14l-.15-.07-.07-.08-.07-.07-.07-.07-.15-.07-.07-.08-.07-.07-.15-.07-.07-.07-.14-.07-.07-.08-.08-.07-.14-.07-.07-.07-.15-.07-.14-.08-.15-.07-.07-.07-.14-.07-.07-.07-.22-.08-.22-.07-.07-.07-.22-.07-.14-.07-.14-.08-.15-.07-.21-.07-.22-.07-.14-.08-.29-.07-.22-.07-.29-.07-.21-.07-.44-.08-.36-.07-.72-.07H15.8l-.22.07z" fill="#fff"/></svg>